<svg xmlns="http://www.w3.org/2000/svg" x="0px" y="0px"
width="50" height="50"
viewBox="0 0 172 172"
style=" fill:#000000;"><g fill="none" fill-rule="nonzero" stroke="none" stroke-width="1" stroke-linecap="butt" stroke-linejoin="miter" stroke-miterlimit="10" stroke-dasharray="" stroke-dashoffset="0" font-family="none" font-weight="none" font-size="none" text-anchor="none" style="mix-blend-mode: normal"><path d="M0,172v-172h172v172z" fill="none"></path><g fill="#f065fa"><path d="M158.24,0c-6.67844,0 -13.26281,2.74125 -18.5975,8.6c-5.33469,5.85875 -9.59437,14.56625 -12.7925,27.09c-1.35719,5.29438 -2.76812,12.05344 -3.87,19.35h-23.22c-8.07594,0 -16.38031,0.72563 -23.1125,4.73c-6.73219,4.00438 -11.2875,11.62344 -11.2875,22.79c0,0.1075 0,0.215 0,0.3225c-7.08156,0.17469 -12.85969,0.67188 -17.415,2.15c-2.98312,0.9675 -5.57656,2.51281 -7.4175,4.73c-1.84094,2.21719 -2.6875,5.09281 -2.6875,8.17c0,6.24844 1.46469,11.7175 4.4075,15.8025c2.9025,4.03125 7.45781,6.49031 12.5775,6.5575c-0.79281,14.16313 -6.45,21.44625 -13.2225,25.6925c-7.29656,4.56875 -16.15187,5.375 -20.9625,5.375h-17.2c-1.23625,-0.01344 -2.39187,0.63156 -3.02344,1.70656c-0.61813,1.075 -0.61813,2.39187 0,3.46687c0.63156,1.075 1.78719,1.72 3.02344,1.70656h17.2c5.50938,0 15.57406,-0.77937 24.6175,-6.45c8.47906,-5.32125 15.68156,-15.23812 16.555,-31.4975c5.71094,0 14.66031,-0.01344 27.6275,0v31.7125c-6.38281,0.73906 -12.29531,2.05594 -17.2,3.87c-3.73562,1.38406 -6.92031,2.98313 -9.3525,4.945c-2.43219,1.96188 -4.4075,4.515 -4.4075,7.74v3.44h82.56v-3.44c0,-3.225 -1.97531,-5.77812 -4.4075,-7.74c-2.43219,-1.96187 -5.61687,-3.56094 -9.3525,-4.945c-4.90469,-1.81406 -10.81719,-3.13094 -17.2,-3.87v-31.605c6.97406,0.01344 18.15406,0 19.0275,0c4.52844,0 7.98188,-2.99656 9.675,-6.235c1.22281,-2.32469 1.78719,-4.8375 2.0425,-7.2025c0.13438,-0.24187 0.24188,-0.48375 0.3225,-0.7525c1.04813,-3.07719 27.45281,-79.05281 29.3475,-84.495c1.51844,-4.36719 2.21719,-9.28531 0.5375,-13.76c-1.67969,-4.47469 -6.42312,-7.955 -12.7925,-7.955zM158.24,6.88c4.32688,0 5.52281,1.24969 6.3425,3.44c0.81969,2.19031 0.60469,5.85875 -0.5375,9.1375c-1.74687,5.01219 -22.81687,65.52125 -27.1975,78.1525c-1.49156,-1.10187 -3.18469,-2.09625 -5.16,-3.01c-0.79281,-0.37625 -1.70656,-0.71219 -2.58,-1.075c-0.04031,-0.04031 -0.06719,-0.06719 -0.1075,-0.1075c-2.99656,-13.42406 0.83313,-41.61594 4.515,-56.0075c3.02344,-11.83844 7.06813,-19.55156 11.2875,-24.1875c4.21938,-4.63594 8.50594,-6.3425 13.4375,-6.3425zM99.76,61.92h22.36c-1.1825,10.105 -1.69312,20.50563 -0.5375,28.9175c-2.59344,-0.80625 -5.29437,-1.54531 -8.17,-2.2575c-14.05562,-3.46687 -30.47625,-5.805 -41.1725,-5.805c0,-0.06719 0,-0.14781 0,-0.215c0,-9.47344 3.1175,-13.89437 7.955,-16.77c4.8375,-2.87562 11.99969,-3.87 19.565,-3.87zM72.24,89.655c9.66156,0 25.92094,2.2575 39.4525,5.59c6.75906,1.66625 12.91344,3.64156 17.0925,5.59c2.09625,0.9675 3.74906,1.92156 4.6225,2.6875c0.65844,0.56438 0.7525,0.87344 0.7525,0.86c-0.01344,2.20375 -0.48375,4.91813 -1.3975,6.665c-0.92719,1.77375 -1.76031,2.4725 -3.655,2.4725c-0.9675,0 -13.19562,0.01344 -21.8225,0c-0.45687,-0.09406 -0.94062,-0.09406 -1.3975,0c-5.09281,-0.01344 -6.61125,0.01344 -12.47,0c-0.36281,-0.05375 -0.71219,-0.05375 -1.075,0c-15.77562,-0.02687 -28.47406,-0.1075 -33.54,-0.1075c-0.09406,0 -0.55094,0 -0.645,0c-0.43,0 -2.88906,0 -3.1175,0c-3.1175,0 -5.36156,-1.20937 -7.2025,-3.7625c-1.84094,-2.55312 -3.1175,-6.5575 -3.1175,-11.7175c0,-1.88125 0.44344,-2.96969 1.1825,-3.87c0.73906,-0.90031 2.00219,-1.76031 4.1925,-2.4725c4.36719,-1.42437 11.94594,-1.935 22.145,-1.935zM96.32,120.4c3.18469,0 3.92375,0 6.88,0v31.0675c-1.14219,-0.04031 -2.28437,-0.1075 -3.44,-0.1075c-1.15562,0 -2.29781,0.06719 -3.44,0.1075zM99.76,158.24c9.51375,0 18.65125,1.67969 25.155,4.085c2.35156,0.87344 3.85656,1.84094 5.375,2.795h-61.06c1.51844,-0.95406 3.02344,-1.92156 5.375,-2.795c6.50375,-2.40531 15.64125,-4.085 25.155,-4.085z"></path></g></g></svg>