<svg xmlns="http://www.w3.org/2000/svg" x="0px" y="0px"
width="50" height="50"
viewBox="0 0 172 172"
style=" fill:#000000;"><g fill="none" fill-rule="nonzero" stroke="none" stroke-width="1" stroke-linecap="butt" stroke-linejoin="miter" stroke-miterlimit="10" stroke-dasharray="" stroke-dashoffset="0" font-family="none" font-weight="none" font-size="none" text-anchor="none" style="mix-blend-mode: normal"><path d="M0,172v-172h172v172z" fill="none"></path><g fill="#f065fa"><path d="M100.55281,13.76c-31.0976,0 -51.56748,17.47332 -55.24828,46.23172l8.97625,-8.97625c6.1232,-19.3328 22.46723,-30.37547 46.27203,-30.37547c5.9856,0 15.13412,2.06561 24.73172,11.97281c0.6536,0.6536 1.55042,1.02797 2.47922,1.02797c28.1392,0 29.54906,32.06564 29.54906,38.49844c0,4.7128 -0.58426,9.28665 -1.16906,14.10265c-1.6512,13.3128 -3.37335,27.03733 7.25625,42.75813c-4.75477,2.1232 -14.61974,5.82715 -30.03953,8.11625c4.86332,-8.08546 12.06688,-22.99124 12.06688,-40.85672c0,-25.7581 -15.6565,-39.87888 -18.06,-41.89813c-0.67954,-0.7702 -1.66766,-1.1965 -2.69422,-1.16234c-0.22876,0.0087 -0.45609,0.04021 -0.6786,0.09406c-0.00224,0 -0.00448,0 -0.00672,0c-0.0769,0.01975 -0.15309,0.04216 -0.22844,0.06719c-0.03601,0.01061 -0.07185,0.02181 -0.1075,0.03359c-1.17841,0.39938 -2.04935,1.40391 -2.27765,2.62703c-0.24056,0.83535 -4.16323,13.68473 -21.06328,18.92672c-5.59136,1.73334 -14.4558,2.94486 -22.23906,6.73891c-7.78326,3.79405 -14.57969,11.06052 -14.57969,23.0789c0,14.20451 5.97781,25.36557 10.83735,32.16938c-14.53941,-2.29305 -23.66972,-5.84856 -28.0239,-7.90125c6.1232,-9.632 8.01305,-18.8504 8.11625,-27.5536l-1.72,1.6864l-5.88562,5.95281c-1.032,6.192 -3.50853,12.51757 -8.32453,19.08797c-0.5504,0.7568 -0.75572,1.6848 -0.61812,2.6136c0.172,0.9288 0.72132,1.75494 1.47812,2.27094c0.5504,0.344 13.04029,8.53255 41.45469,11.69735c7.2584,8.6688 15.61384,13.45094 23.66344,13.45094c8.0496,0 16.44535,-4.78053 23.70375,-13.51813c28.4144,-3.1992 41.62239,-11.21225 42.20719,-11.55625c0.8256,-0.516 1.38003,-1.34805 1.55203,-2.31125c0.172,-0.9632 -0.07364,-1.95757 -0.65844,-2.71437c-11.5928,-14.8952 -10.01013,-27.58773 -8.32453,-41.03813c0.6192,-4.8504 1.24297,-9.83705 1.24297,-14.96265c0,-20.5368 -9.18453,-44.48484 -34.98453,-45.34484c-10.9048,-10.7328 -21.56907,-13.03437 -28.65547,-13.03437zM16.21906,41.01797c-4.12552,0 -8.25097,1.58161 -11.395,4.74344c-6.32542,6.32542 -6.32542,16.56536 0,22.89078c1.29176,1.32694 4.90181,4.97074 6.28203,6.31563c3.08051,3.11808 7.29203,4.38086 11.5025,4.28656l1.67297,1.69313c0.00446,0.00673 0.00893,0.01345 0.01344,0.02015l2.44562,2.44563l2.43219,2.43219l-6.22828,6.20813h-0.71891c-1.1696,0 -2.3392,0.13545 -3.44,0.37625c-0.3784,0.0688 -0.79738,0.17818 -1.17578,0.31578c-0.4816,0.1376 -0.96293,0.30422 -1.44453,0.51062c-0.4816,0.2064 -0.92934,0.41764 -1.41094,0.65844c-1.3416,0.7568 -2.57355,1.68076 -3.70875,2.78156l-6.29547,6.32906c-6.3296,6.4328 -6.3296,16.44454 0,22.87734c3.096,3.096 7.18906,4.81735 11.48906,4.81735c4.2656,0 8.31916,-1.72135 11.41516,-4.81735l6.29547,-6.32906c3.096,-3.1304 4.78778,-7.56451 4.61578,-11.89891l8.90906,-9.01656l6.9136,-6.9136l44.37735,-44.61922c0.9632,-0.9632 1.2693,-2.44267 0.7189,-3.71547c-0.5504,-1.3072 -1.82213,-2.12985 -3.19813,-2.12985h-13.51812c-6.192,0 -11.80108,2.43971 -15.68828,6.70531l-14.68719,14.6939l-0.48375,0.47703l-7.1286,7.13531h-0.00672l-2.4389,-2.44563l-2.43219,-2.43219l-1.72672,-1.74688c0.08122,-4.22602 -1.17543,-8.4479 -4.25297,-11.56297c-0.00447,-0.00449 -0.00895,-0.00897 -0.01344,-0.01344c-1.24953,-1.24946 -4.9902,-5.02372 -6.28875,-6.32234c-3.14489,-3.16643 -7.2732,-4.75016 -11.40172,-4.75016zM16.21906,47.78375c2.32152,0 4.6464,0.94494 6.52391,2.83531c0.00224,0.00224 0.00448,0.00448 0.00672,0.00672c1.24822,1.24822 4.97967,5.01312 6.28203,6.31562c2.02906,2.05381 2.96404,5.1008 2.52625,7.80047c-0.176,1.08108 0.17329,2.18136 0.94063,2.96297l2.51281,2.5464c0.00669,0.00675 0.01341,0.01346 0.02016,0.02015l2.4389,2.43891l2.43219,2.43219l0.00672,0.00672l-5.85875,5.84531c-0.00224,-0.00224 -0.00448,-0.00448 -0.00672,-0.00672l-2.43891,-2.44563l-2.43219,-2.43219l-2.4725,-2.49937c-0.79154,-0.80268 -1.92611,-1.16665 -3.03688,-0.97422c-2.63584,0.45528 -5.64878,-0.47098 -7.65937,-2.50609c-0.01775,-0.01586 -0.03567,-0.03154 -0.05375,-0.04703c-1.18214,-1.15019 -5.03429,-5.03472 -6.22828,-6.26188c-0.01112,-0.01127 -0.02232,-0.02247 -0.03359,-0.03359c-3.78818,-3.78818 -3.78818,-9.37386 0,-13.16203c0.00448,-0.00223 0.00896,-0.00447 0.01344,-0.00672c1.87751,-1.89037 4.19567,-2.83531 6.51719,-2.83531zM82.76828,48.16h5.22719l-34.67547,34.88375l-0.45015,0.44344l-5.74453,5.74453l-0.37625,0.38297l-14.27734,14.37813c-0.7912,0.7912 -1.16718,1.88985 -0.96078,2.95625c0.4816,2.7864 -0.51761,5.77759 -2.51281,7.80719l-6.29547,6.29547c-1.7888,1.7888 -4.12424,2.6875 -6.46344,2.6875c-2.3736,0 -4.74935,-0.8987 -6.50375,-2.6875c-3.6808,-3.6808 -3.6808,-9.49386 0,-13.20906l6.29547,-6.32906c1.6512,-1.6512 3.95627,-2.6136 6.29547,-2.6136c0.4472,0 0.89655,0.06558 1.34375,0.13437c0.172,0.0344 0.37813,0.04031 0.58453,0.04031c0.9288,0 1.81971,-0.34669 2.43891,-1.03469l18.71172,-18.61094l0.41656,-0.40985l5.87891,-5.88562l0.48375,-0.48375l19.95469,-19.91438c2.7176,-2.9928 6.39786,-4.57547 10.62906,-4.57547zM17.93906,54.34125c-1.2556,-0.0387 -2.50744,0.3577 -3.45344,1.1489c-1.892,1.5824 -1.892,4.74613 0,6.63813l3.16453,3.16453c1.8576,1.892 5.02159,1.89146 6.91359,0.30906c1.892,-1.892 1.892,-4.74612 0,-6.63812c-0.6536,-0.6192 -2.51093,-2.54533 -3.16453,-3.16453c-0.946,-0.946 -2.20456,-1.41927 -3.46016,-1.45797zM125.89594,62.47094c4.62236,4.93913 12.65141,16.01185 12.65141,33.7886c0,24.0259 -14.92906,43.12094 -14.92906,43.12094c-0.08435,0.10069 -0.16286,0.20612 -0.23515,0.31578c-6.04198,7.522 -12.7601,11.66375 -18.91328,11.66375c-6.14574,0 -12.81773,-4.13115 -18.85281,-11.60328c-0.14499,-0.20338 -0.31171,-0.39037 -0.49719,-0.55765c0,0 -14.74766,-13.81347 -14.74766,-34.4336c0,-9.66393 4.33461,-13.78005 10.71641,-16.89094c6.3818,-3.11089 14.71644,-4.32591 21.26484,-6.35594c13.66907,-4.23982 20.47234,-13.3819 23.5425,-19.04766zM44.6864,82.35172c-1.892,0 -3.47359,1.58751 -3.47359,3.51391c0,0.7224 0.23972,1.40475 0.61812,1.95515c0.2408,0.3784 0.54879,0.6587 0.92719,0.9339c0.5504,0.3784 1.20588,0.58453 1.92828,0.58453c0.3612,0 0.70117,-0.05563 1.02797,-0.15453c0.3268,-0.0989 0.64151,-0.2408 0.93391,-0.43c0.2236,-0.1634 0.42758,-0.35421 0.6114,-0.56437c0.55148,-0.63049 0.90031,-1.44749 0.90031,-2.32469c0,-0.3612 -0.04891,-0.70547 -0.14781,-1.02797c-0.0989,-0.3225 -0.24752,-0.62511 -0.43672,-0.90031v-0.0336l-0.8936,-0.8936c-0.2752,-0.2064 -0.5504,-0.34695 -0.86,-0.45015c-0.344,-0.1376 -0.72267,-0.20828 -1.13547,-0.20828zM87.26985,95.39281c-2.6144,0 -4.70985,2.09625 -4.70985,4.67625c0,2.58 2.09545,4.67625 4.70985,4.67625c2.58,0 4.68297,-2.09625 4.68297,-4.67625c0,-2.58 -2.10297,-4.67625 -4.68297,-4.67625zM121.66985,95.39281c-2.6144,0 -4.70985,2.09625 -4.70985,4.67625c0,2.58 2.09545,4.67625 4.70985,4.67625c2.58,0 4.68297,-2.09625 4.68297,-4.67625c0,-2.58 -2.10297,-4.67625 -4.68297,-4.67625zM21.15063,104.67813c-1.1438,0.0258 -2.27981,0.49934 -3.19141,1.41094c-0.6536,0.6192 -2.51093,2.54533 -3.16453,3.16453c-1.4792,1.4792 -1.7931,3.54669 -0.9675,5.30109c0.0344,0.6192 0.31121,1.1989 0.79281,1.6461c0.516,0.5504 1.16691,0.65844 1.54531,0.65844c1.72,0.8256 3.75471,0.5117 5.23391,-0.9675c0.6536,-0.6192 2.51093,-2.54533 3.16453,-3.16453c1.5824,-1.5824 1.58159,-4.71253 0.03359,-6.60453v-0.16797h-0.20828c-0.946,-0.8772 -2.09464,-1.30236 -3.23844,-1.27656z"></path></g></g></svg>