<svg xmlns="http://www.w3.org/2000/svg" x="0px" y="0px"
width="50" height="50"
viewBox="0 0 172 172"
style=" fill:#000000;"><g fill="none" fill-rule="nonzero" stroke="none" stroke-width="1" stroke-linecap="butt" stroke-linejoin="miter" stroke-miterlimit="10" stroke-dasharray="" stroke-dashoffset="0" font-family="none" font-weight="none" font-size="none" text-anchor="none" style="mix-blend-mode: normal"><path d="M0,172v-172h172v172z" fill="none"></path><g fill="#f065fa"><path d="M79.12,6.88c-5.6587,0 -10.32,4.6613 -10.32,10.32v41.28h13.76v34.4l-6.88,27.52h9.03l2.96969,-11.89219l2.97641,11.89219h5.6639l-6.88,-27.52v-34.4h13.76v-3.44v-37.84c0,-5.6587 -4.6613,-10.32 -10.32,-10.32zM79.12,13.76h13.76c1.9437,0 3.44,1.4963 3.44,3.44v34.4h-20.64v-34.4c0,-1.9437 1.4963,-3.44 3.44,-3.44zM75.68,71.15828c-8.12184,3.87344 -13.76,12.14804 -13.76,21.72844v1.94172c-8.35074,6.94314 -13.76,17.35694 -13.76,29.01156v41.28h6.88v-41.28c0,-7.30596 2.59685,-14.00209 6.88,-19.30297v33.06969c0,7.58864 6.17136,13.76 13.76,13.76h20.64c7.58864,0 13.76,-6.17136 13.76,-13.76v-33.06969c4.2832,5.30003 6.88,11.99427 6.88,19.30297v41.28h6.88v-41.28c0,-11.65756 -5.40962,-22.06898 -13.76,-29.01156v-1.94844c0,-9.5804 -5.63816,-17.84828 -13.76,-21.72172v8.04906c4.15208,3.14416 6.88,8.0725 6.88,13.66594v44.72c0,3.79432 -3.08568,6.88 -6.88,6.88h-20.64c-3.79432,0 -6.88,-3.08568 -6.88,-6.88v-44.71328c0,-5.59688 2.72792,-10.53193 6.88,-13.67265z"></path></g></g></svg>