<svg xmlns="http://www.w3.org/2000/svg" x="0px" y="0px"
width="45" height="45"
viewBox="0 0 226 226"
style=" fill:#000000;"><g fill="none" fill-rule="nonzero" stroke="none" stroke-width="1" stroke-linecap="butt" stroke-linejoin="miter" stroke-miterlimit="10" stroke-dasharray="" stroke-dashoffset="0" font-family="none" font-weight="none" font-size="none" text-anchor="none" style="mix-blend-mode: normal"><path d="M0,226v-226h226v226z" fill="none"></path><g fill="#f065fa"><path d="M113,22.6c-49.9234,0 -90.4,40.4766 -90.4,90.4c0,45.32053 33.38773,82.74613 76.8852,89.28507v-65.32907h-22.36647v-23.76013h22.36647v-15.81247c0,-26.17833 12.75393,-37.66667 34.5102,-37.66667c10.4186,0 15.933,0.77593 18.53953,1.12247v20.73927h-14.84067c-9.23587,0 -12.46013,8.76127 -12.46013,18.62993v12.98747h27.06727l-3.66873,23.76013h-23.39853v65.5174c44.12273,-5.98147 78.16587,-43.7084 78.16587,-89.4734c0,-49.9234 -40.4766,-90.4 -90.4,-90.4z"></path></g></g></svg>