<svg xmlns="http://www.w3.org/2000/svg" x="0px" y="0px"
width="45" height="45"
viewBox="0 0 226 226"
style=" fill:#000000;"><g fill="none" fill-rule="nonzero" stroke="none" stroke-width="1" stroke-linecap="butt" stroke-linejoin="miter" stroke-miterlimit="10" stroke-dasharray="" stroke-dashoffset="0" font-family="none" font-weight="none" font-size="none" text-anchor="none" style="mix-blend-mode: normal"><path d="M0,226v-226h226v226z" fill="none"></path><g fill="#f065fa"><path d="M75.31862,22.6c-29.07113,0 -52.71862,23.66938 -52.71862,52.74805v75.33333c0,29.07113 23.66938,52.71862 52.74805,52.71862h75.33333c29.07113,0 52.71862,-23.66938 52.71862,-52.74805v-75.33333c0,-29.07113 -23.66938,-52.71862 -52.74805,-52.71862zM165.73333,52.73333c4.1584,0 7.53333,3.37493 7.53333,7.53333c0,4.1584 -3.37493,7.53333 -7.53333,7.53333c-4.1584,0 -7.53333,-3.37493 -7.53333,-7.53333c0,-4.1584 3.37493,-7.53333 7.53333,-7.53333zM113,67.8c24.9278,0 45.2,20.2722 45.2,45.2c0,24.9278 -20.2722,45.2 -45.2,45.2c-24.9278,0 -45.2,-20.2722 -45.2,-45.2c0,-24.9278 20.2722,-45.2 45.2,-45.2zM113,82.86667c-16.64218,0 -30.13333,13.49115 -30.13333,30.13333c0,16.64218 13.49115,30.13333 30.13333,30.13333c16.64218,0 30.13333,-13.49115 30.13333,-30.13333c0,-16.64218 -13.49115,-30.13333 -30.13333,-30.13333z"></path></g></g></svg>