<svg xmlns="http://www.w3.org/2000/svg" x="0px" y="0px"
width="35" height="35"
viewBox="0 0 226 226"
style=" fill:#000000;"><g fill="none" fill-rule="nonzero" stroke="none" stroke-width="1" stroke-linecap="butt" stroke-linejoin="miter" stroke-miterlimit="10" stroke-dasharray="" stroke-dashoffset="0" font-family="none" font-weight="none" font-size="none" text-anchor="none" style="mix-blend-mode: normal"><path d="M0,226v-226h226v226z" fill="none"></path><g fill="#ffffff"><path d="M91.10625,2.68375c-5.424,0 -10.84348,2.06832 -14.9725,6.19734l-68.12664,68.11781c-5.28388,5.28388 -5.28388,13.89512 0,19.18352c2.6442,2.63968 6.11598,3.955 9.58734,3.955c3.47588,0 6.95197,-1.31963 9.59617,-3.96383l19.74852,-19.74852c1.90292,0.87688 4.14131,1.23876 6.55047,1.30656l15.24617,15.24617c0.8814,0.8814 2.03866,1.32422 3.19578,1.32422c1.15712,0 2.31438,-0.44282 3.19578,-1.32422c1.76732,-1.76732 1.76732,-4.62424 0,-6.39156l-10.7968,-10.7968c0.3842,-0.1356 0.73245,-0.19514 1.12117,-0.3443c2.49956,-0.96276 5.06876,-2.21685 7.64516,-3.68133l8.43086,8.43086c0.8814,0.8814 2.03866,1.32422 3.19578,1.32422c1.15712,0 2.31438,-0.44282 3.19578,-1.32422c1.76732,-1.76732 1.76732,-4.62424 0,-6.39156l-7.09781,-7.08898c2.373,-1.75828 4.72672,-3.68535 7.01836,-5.77359l6.47101,6.47101c0.8814,0.8814 2.03866,1.32422 3.19578,1.32422c1.15712,0 2.31438,-0.44282 3.19578,-1.32422c1.76732,-1.76732 1.76732,-4.62876 0,-6.39156l-6.47102,-6.47102c2.11536,-2.31876 4.05105,-4.65051 5.79125,-6.99187l7.07133,7.07133c0.8814,0.8814 2.03866,1.32422 3.19578,1.32422c1.15712,0 2.31438,-0.44282 3.19578,-1.32422c1.76732,-1.7628 1.76732,-4.62424 0,-6.39156l-8.4132,-8.4132c1.695,-2.99224 3.04457,-5.92819 4.03445,-8.74867l10.77031,10.77031c0.8814,0.8814 2.03866,1.32422 3.19578,1.32422c1.15712,0 2.31438,-0.44282 3.19578,-1.32422c1.76732,-1.76732 1.76732,-4.62424 0,-6.39156l-15.21969,-15.21969c-0.09492,-4.17196 -1.35127,-7.74283 -3.96383,-10.35539l-0.99758,-0.99758c-4.12902,-4.12902 -9.55733,-6.19734 -14.98133,-6.19734zM133.6843,30.30695c1.8758,2.37752 2.94859,5.26898 2.94859,8.34258c0,3.62052 -1.40982,7.02902 -3.97266,9.58734c-2.38204,2.38204 -5.50119,3.76968 -8.83695,3.955c-0.18532,3.34028 -1.57296,6.45491 -3.955,8.83695c-2.37752,2.37752 -5.49237,3.76085 -8.82812,3.94617c-0.18532,3.33576 -1.56844,6.44608 -3.955,8.82813c-2.38204,2.38656 -5.49667,3.76968 -8.83695,3.955c-0.17628,3.21372 -1.49181,6.38711 -3.94617,8.83695c-2.38204,2.38656 -5.5055,3.76968 -8.84578,3.955c-0.17628,3.21372 -1.49181,6.37828 -3.94617,8.82813c-2.55832,2.56284 -5.96682,3.97266 -9.58734,3.97266c-3.62052,0 -7.02019,-1.40982 -9.57851,-3.97266l-12.79195,-12.78312l-14.78711,14.79594c0.30284,4.66916 0.93345,9.37088 1.59789,14.27508c2.46792,18.17492 5.01685,36.96767 -9.96695,57.31219c-0.73224,0.9944 -1.02463,2.24474 -0.81219,3.46062c0.21244,1.21588 0.91163,2.29687 1.94219,2.98391c0.69156,0.46104 17.1029,11.18058 54.4607,15.33446c9.52816,11.413 20.50724,17.68273 31.075,17.68273c10.61748,0 21.61725,-6.28612 31.15445,-17.75336c37.34876,-4.19456 54.71721,-14.7412 55.44945,-15.1932c1.08932,-0.67348 1.83526,-1.78463 2.06578,-3.04571c0.22148,-1.26108 -0.09633,-2.56291 -0.88281,-3.57539c-15.20528,-19.53996 -13.12615,-36.23133 -10.92039,-53.90453c0.791,-6.35512 1.61555,-12.92543 1.61555,-19.66023c0,-26.99796 -12.08613,-58.44198 -45.96805,-59.58102c-4.0228,-3.96404 -8.01784,-7.02401 -11.89148,-9.41961zM141.30297,86.73633c6.09296,6.67152 16.54391,21.42466 16.54391,44.26422c0.00452,31.37784 -19.42604,56.41461 -19.62492,56.66773c-0.03164,0.04068 -0.03016,0.09174 -0.0618,0.13242c-8.00944,10.05248 -16.91264,15.5993 -25.09836,15.5993c-8.19476,0 -17.14104,-5.59293 -25.18664,-15.74937c-0.04068,-0.04972 -0.10488,-0.0827 -0.15008,-0.13242c-0.03164,-0.03164 -0.04329,-0.06547 -0.07945,-0.09711c-0.19436,-0.1808 -19.37773,-18.28686 -19.37773,-45.24414c0,-18.78964 13.6636,-23.53281 32.97305,-28.17937c3.2544,-0.78196 6.33252,-1.52522 9.04,-2.36594c18.1478,-5.62288 27.04443,-17.46443 31.02203,-24.89531zM92.66,131.08c-3.74449,0 -6.78,3.03551 -6.78,6.78c0,3.74449 3.03551,6.78 6.78,6.78c3.74449,0 6.78,-3.03551 6.78,-6.78c0,-3.74449 -3.03551,-6.78 -6.78,-6.78zM133.34,131.08c-3.74449,0 -6.78,3.03551 -6.78,6.78c0,3.74449 3.03551,6.78 6.78,6.78c3.74449,0 6.78,-3.03551 6.78,-6.78c0,-3.74449 -3.03551,-6.78 -6.78,-6.78z"></path></g></g></svg>