<svg xmlns="http://www.w3.org/2000/svg" x="0px" y="0px"
width="40" height="40"
viewBox="0 0 226 226"
style=" fill:#000000;"><g fill="none" fill-rule="nonzero" stroke="none" stroke-width="1" stroke-linecap="butt" stroke-linejoin="miter" stroke-miterlimit="10" stroke-dasharray="" stroke-dashoffset="0" font-family="none" font-weight="none" font-size="none" text-anchor="none" style="mix-blend-mode: normal"><path d="M0,226v-226h226v226z" fill="none"></path><g fill="#ffffff"><path d="M132.12172,18.08c-45.2452,0 -73.36172,28.1144 -73.36172,73.45c0,0.2712 -0.00106,0.54099 0.04414,0.81219l-8.18367,-8.22781c0.2712,-5.7404 -1.94289,-11.47515 -6.05609,-15.67875l-8.27195,-8.31609c-4.068,-4.068 -9.34898,-6.28563 -14.99898,-6.28563c-5.6048,0 -10.89567,2.21762 -14.96367,6.28563c-4.068,4.068 -6.28562,9.40195 -6.28562,15.05195c0,5.65 2.21868,10.97619 6.24148,14.99899c1.6724,1.6724 6.68889,6.73409 8.31609,8.31609c4.068,4.1584 9.89633,6.38026 15.54633,6.10906l8.18367,8.22781l-8.18367,8.1307h-0.94461c-1.5368,0 -3.0736,0.17797 -4.52,0.49437c-0.4972,0.0904 -1.04772,0.23412 -1.54492,0.41492c-0.6328,0.1808 -1.26525,0.39974 -1.89805,0.67094c-0.6328,0.2712 -1.22111,0.54876 -1.85391,0.86516c-1.7628,0.9944 -3.38152,2.20844 -4.87312,3.65484l-8.27195,8.31609c-4.1584,4.2036 -6.24148,9.62795 -6.24148,15.05195c0,5.3788 2.08308,10.75901 6.24148,15.00781c4.068,4.068 9.44609,6.32977 15.09609,6.32977c1.4012,0 2.7798,-0.13948 4.13156,-0.41492c4.05529,-0.82631 7.81642,-2.86384 10.86742,-5.91484l8.27195,-8.31609c4.068,-4.1132 6.29092,-9.93941 6.06492,-15.63461l11.70609,-11.84734c0.4068,12.43 -1.814,25.31129 -11.8032,38.82609c-0.7232,0.9944 -0.99299,2.21374 -0.81219,3.43414c0.226,1.2204 0.94779,2.30591 1.94219,2.98391c0.7232,0.452 17.13433,11.21137 54.46953,15.36977c9.5372,11.3904 20.51586,17.67391 31.09266,17.67391c1.3221,0 2.65788,-0.09711 3.99031,-0.29133c1.33243,-0.19422 2.66397,-0.48978 3.99914,-0.87398c8.01099,-2.3052 16.00327,-7.98628 23.15617,-16.59688c37.3352,-4.2036 54.68988,-14.73237 55.45828,-15.18437c1.0848,-0.678 1.8133,-1.77128 2.0393,-3.03688c0.226,-1.2656 -0.09676,-2.57216 -0.86516,-3.56656c-15.2324,-19.5716 -13.15284,-36.24899 -10.93804,-53.92219c0.8136,-6.3732 1.6332,-12.92543 1.6332,-19.66023c0,-1.68653 -0.05341,-3.38967 -0.15008,-5.10266c-1.45002,-25.69481 -14.03672,-53.41898 -45.81797,-54.47836c-14.3284,-14.1024 -28.29555,-17.12656 -37.65195,-17.12656zM21.32875,62.97102c3.11315,0.00565 6.21782,1.19356 8.54562,3.56656l8.27195,8.27195c2.6216,2.6668 3.88932,6.59708 3.30172,10.25828c-0.226,1.4464 0.22282,2.88998 1.26242,3.88438l9.71976,9.80804l-7.72461,7.6893l-9.63148,-9.71976c-1.0396,-1.0848 -2.48106,-1.54139 -3.97266,-1.31539c-3.5708,0.678 -7.45906,-0.63386 -10.12586,-3.34586c-1.6724,-1.582 -6.60061,-6.55436 -8.22781,-8.27196c-2.3956,-2.3504 -3.66367,-5.41588 -3.66367,-8.62508c0,-0.8023 0.08228,-1.59789 0.23836,-2.37476c0.46824,-2.33062 1.62861,-4.50658 3.42531,-6.30328c2.3504,-2.3504 5.46779,-3.52807 8.58094,-3.52242zM108.75367,63.28h6.86828l-45.56195,45.83563l-0.59148,0.58266l-7.54805,7.54805l-0.49437,0.5032l-18.75977,18.89219c-1.0396,1.0396 -1.53362,2.48318 -1.26242,3.88438c0.6328,3.6612 -0.68012,7.59148 -3.30172,10.25828l-8.27195,8.27195c-1.7628,1.7628 -3.93487,2.86985 -6.20617,3.31055c-0.7571,0.1469 -1.51808,0.2207 -2.28648,0.2207c-3.1188,0 -6.24042,-1.18085 -8.54562,-3.53125c-4.8364,-4.8364 -4.8364,-12.47449 0,-17.35609l8.27195,-8.31609c2.1696,-2.1696 5.19835,-3.43414 8.27195,-3.43414c0.5876,0 1.17803,0.08616 1.76563,0.17656c0.226,0.0452 0.49685,0.05297 0.76805,0.05297c1.2204,0 2.39101,-0.45553 3.20461,-1.35953l24.58633,-24.45391l0.54734,-0.53852l7.72461,-7.73344l0.63562,-0.63563l26.21953,-26.16656c3.5708,-3.9324 8.40649,-6.01195 13.96609,-6.01195zM23.57109,71.40187c-0.8249,-0.02542 -1.64486,0.09075 -2.41891,0.3443c-0.38703,0.12677 -0.76593,0.28259 -1.12117,0.47672c-0.35524,0.19413 -0.68683,0.42869 -0.99758,0.68859c-0.31075,0.2599 -0.58795,0.54761 -0.82102,0.86516c-0.23306,0.31755 -0.42728,0.66352 -0.58266,1.02406c-0.15537,0.36054 -0.26661,0.73229 -0.3443,1.12117c-0.07769,0.38888 -0.12359,0.78923 -0.12359,1.1918c0,0.40256 0.04591,0.80786 0.12359,1.20945c0.07769,0.40159 0.18892,0.80583 0.3443,1.1918c0.15537,0.38596 0.34959,0.75666 0.58266,1.11234c0.23306,0.35568 0.51027,0.69566 0.82102,1.00641l4.15805,4.15805c0.6102,0.6215 1.32033,1.08656 2.09227,1.40367c0.38597,0.15855 0.78526,0.27711 1.1918,0.36195c0.40654,0.08484 0.82208,0.13736 1.23594,0.15008c0.82772,0.02543 1.65898,-0.09075 2.43656,-0.3443c0.38879,-0.12677 0.76478,-0.29142 1.12117,-0.48555c0.35639,-0.19413 0.69566,-0.41986 1.00641,-0.67977c0.31075,-0.31075 0.57912,-0.64339 0.81219,-0.98875c0.23306,-0.34536 0.42728,-0.70696 0.58266,-1.07703c0.15537,-0.37007 0.27544,-0.74509 0.35312,-1.13c0.31075,-1.53963 -0.00353,-3.16506 -0.93578,-4.54648c-0.23306,-0.34536 -0.50144,-0.66917 -0.81219,-0.97992c-0.8588,-0.8136 -3.29925,-3.34445 -4.15805,-4.15805c-0.31075,-0.31075 -0.65116,-0.58716 -1.00641,-0.82102c-0.35524,-0.23386 -0.72532,-0.4241 -1.11234,-0.58266c-0.38702,-0.15855 -0.7857,-0.28594 -1.1918,-0.37078c-0.40609,-0.08484 -0.82349,-0.12854 -1.23594,-0.14125zM165.51852,82.21633c4.6104,4.9833 11.61039,14.49225 14.82242,28.60312c0.53534,2.35181 0.96615,4.83428 1.26242,7.44211c0.29627,2.60783 0.45906,5.34561 0.45906,8.21016c0,31.3688 -19.43423,56.40536 -19.66023,56.67656c-0.0452,0.0904 -0.08722,0.13913 -0.13242,0.22953l-0.08828,0.08828c-0.98875,1.243 -1.99524,2.41237 -3.01039,3.51359v0.00883c-7.1048,7.70552 -14.78504,11.89148 -21.90258,11.89148c-8.0908,0 -16.85183,-5.42788 -24.80703,-15.28148c-0.1808,-0.2712 -0.36442,-0.48908 -0.63562,-0.71508c0,0 -0.18574,-0.18681 -0.54734,-0.50321c-3.0736,-3.164 -18.79508,-20.29656 -18.79508,-44.74976c0,-1.17237 0.04539,-2.28839 0.15008,-3.35469c1.57036,-15.99458 14.70236,-20.43358 32.79648,-24.7982c3.2544,-0.7684 6.328,-1.54351 9.04,-2.35711c18.1252,-5.6048 27.07092,-17.44614 31.04852,-24.90414zM58.71586,108.20633c-2.486,0 -4.56414,2.08591 -4.56414,4.61711c0,0.9492 0.31499,1.84578 0.81219,2.56898c0.3164,0.4972 0.72108,0.86551 1.21828,1.22711c0.7232,0.4972 1.58447,0.76805 2.53367,0.76805c0.4746,0 0.92131,-0.0731 1.3507,-0.20305c0.4294,-0.12995 0.84291,-0.3164 1.22711,-0.565c0.2938,-0.2147 0.56182,-0.46542 0.80336,-0.74156c0.72461,-0.82843 1.18297,-1.90193 1.18297,-3.05453c0,-0.4746 -0.06427,-0.92696 -0.19422,-1.35071c-0.12995,-0.42375 -0.32523,-0.82137 -0.57383,-1.18297v-0.04414l-1.17414,-1.17414c-0.3616,-0.2712 -0.7232,-0.45588 -1.13,-0.59148c-0.452,-0.1808 -0.94955,-0.27367 -1.49195,-0.27367zM114.66852,125.34172c-1.2882,0 -2.47276,0.38711 -3.46062,1.05055c-0.65858,0.44229 -1.23347,1.00552 -1.67734,1.65969c-0.66582,0.98125 -1.05055,2.16289 -1.05055,3.43414c0,1.27125 0.38473,2.4529 1.05055,3.43414c0.22194,0.32709 0.47954,0.63104 0.75922,0.9093c0.27968,0.27826 0.58883,0.52925 0.91813,0.75039c0.65858,0.44229 1.40756,0.76293 2.21586,0.92695c0.40415,0.08202 0.81537,0.12359 1.24477,0.12359c0.42375,0 0.84494,-0.04158 1.24476,-0.12359c2.79878,-0.57409 4.90844,-3.05453 4.90844,-6.02078c0,-3.39 -2.7632,-6.14438 -6.1532,-6.14438zM159.86852,125.34172c-0.4294,0 -0.84062,0.04158 -1.24477,0.12359c-2.82906,0.57409 -4.94375,3.05453 -4.94375,6.02078c0,3.39 2.75332,6.14437 6.18852,6.14437c0.42375,0 0.84494,-0.04158 1.24476,-0.12359c2.79878,-0.57409 4.90844,-3.05453 4.90844,-6.02078c0,-3.39 -2.7632,-6.14438 -6.1532,-6.14438zM27.79094,137.54219c-1.5029,0.0339 -2.99556,0.65611 -4.19336,1.85391c-0.8588,0.8136 -3.29925,3.34445 -4.15805,4.15805c-1.9436,1.9436 -2.35605,4.66019 -1.27125,6.96539c0.0452,0.8136 0.40892,1.57529 1.04172,2.16289c0.678,0.7232 1.53327,0.86516 2.03047,0.86516c2.26,1.0848 4.93351,0.67235 6.87711,-1.27125c0.8588,-0.8136 3.29925,-3.34445 4.15805,-4.15805c2.0792,-2.0792 2.07814,-6.19205 0.04414,-8.67805v-0.2207h-0.27367c-1.243,-1.1526 -2.75226,-1.71124 -4.25516,-1.67734z"></path></g></g></svg>