<svg xmlns="http://www.w3.org/2000/svg" x="0px" y="0px"
width="50" height="50"
viewBox="0 0 172 172"
style=" fill:#000000;"><g fill="none" fill-rule="nonzero" stroke="none" stroke-width="1" stroke-linecap="butt" stroke-linejoin="miter" stroke-miterlimit="10" stroke-dasharray="" stroke-dashoffset="0" font-family="none" font-weight="none" font-size="none" text-anchor="none" style="mix-blend-mode: normal"><path d="M0,172v-172h172v172z" fill="none"></path><g fill="#f065fa"><path d="M51.6,0c-10.44094,0 -19.35,7.6325 -19.35,7.6325c-1.49156,1.1825 -1.72,3.35938 -0.5375,4.8375c1.1825,1.49156 3.35938,1.72 4.8375,0.5375c0,0 8.29094,-6.1275 15.05,-6.1275c8.78813,0 16.34,6.1275 16.34,6.1275l0.86,0.645v13.8675h-3.44c-0.1075,0 -0.215,0 -0.3225,0c-0.1075,0 -0.215,0 -0.3225,0c-1.63937,0.30906 -2.82187,1.76031 -2.795,3.44v17.2h-3.44c-17.01187,0 -30.96,13.94813 -30.96,30.96v19.565c-0.20156,0.67188 -0.20156,1.37063 0,2.0425v54.0725c0,9.44656 7.75344,17.2 17.2,17.2h82.56c9.44656,0 17.2,-7.75344 17.2,-17.2v-54.395c0.09406,-0.45687 0.09406,-0.94062 0,-1.3975v-19.8875c0,-17.01187 -13.94812,-30.96 -30.96,-30.96h-3.44v-17.2c0,-1.89469 -1.54531,-3.44 -3.44,-3.44h-3.44v-13.76h3.44c1.23625,0.01344 2.39188,-0.63156 3.02344,-1.70656c0.61813,-1.075 0.61813,-2.39187 0,-3.46687c-0.63156,-1.075 -1.78719,-1.72 -3.02344,-1.70656h-6.1275c-0.34937,-0.09406 -0.71219,-0.13437 -1.075,-0.1075c-0.1075,0.02688 -0.215,0.06719 -0.3225,0.1075h-26.1225c-0.34937,-0.09406 -0.71219,-0.13437 -1.075,-0.1075c-0.1075,0.02688 -0.215,0.06719 -0.3225,0.1075h-0.43c-1.55875,-1.24969 -8.89562,-6.88 -19.565,-6.88zM75.68,13.76h20.64v13.76h-20.64zM68.8,34.4h34.4v13.76h-34.4zM58.48,55.04h55.04c13.26281,0 24.08,10.81719 24.08,24.08v17.2h-41.6025c0.18813,-1.10187 0.3225,-2.28437 0.3225,-3.44c0,-11.35469 -9.28531,-20.64 -20.64,-20.64c-11.35469,0 -20.64,9.28531 -20.64,20.64c0,1.15563 0.13438,2.33813 0.3225,3.44h-20.9625v-17.2c0,-13.26281 10.81719,-24.08 24.08,-24.08zM75.68,79.12c7.64594,0 13.76,6.11406 13.76,13.76c0,7.64594 -6.11406,13.76 -13.76,13.76c-5.56312,0 -10.29312,-3.25187 -12.47,-7.955c0,-0.04031 0,-0.06719 0,-0.1075c-0.02687,-0.06719 -0.08062,-0.14781 -0.1075,-0.215c-0.04031,-0.04031 -0.06719,-0.06719 -0.1075,-0.1075c-0.01344,-0.02687 0.01344,-0.08062 0,-0.1075c-0.04031,-0.04031 -0.06719,-0.06719 -0.1075,-0.1075c-0.63156,-1.58562 -0.9675,-3.3325 -0.9675,-5.16c0,-7.64594 6.11406,-13.76 13.76,-13.76zM34.4,103.2h23.435c3.58781,6.14094 10.25281,10.32 17.845,10.32c7.59219,0 14.25719,-4.17906 17.845,-10.32h44.075v51.6c0,5.6975 -4.6225,10.32 -10.32,10.32h-82.56c-5.6975,0 -10.32,-4.6225 -10.32,-10.32zM106.64,113.52c-7.56531,0 -13.76,6.19469 -13.76,13.76c0,7.56531 6.19469,13.76 13.76,13.76c7.56531,0 13.76,-6.19469 13.76,-13.76c0,-7.56531 -6.19469,-13.76 -13.76,-13.76zM106.64,120.4c3.84313,0 6.88,3.03688 6.88,6.88c0,3.84313 -3.03687,6.88 -6.88,6.88c-3.84312,0 -6.88,-3.03687 -6.88,-6.88c0,-3.84312 3.03688,-6.88 6.88,-6.88zM79.12,137.6c-5.65719,0 -10.32,4.66281 -10.32,10.32c0,5.65719 4.66281,10.32 10.32,10.32c5.65719,0 10.32,-4.66281 10.32,-10.32c0,-5.65719 -4.66281,-10.32 -10.32,-10.32zM79.12,144.48c1.935,0 3.44,1.505 3.44,3.44c0,1.935 -1.505,3.44 -3.44,3.44c-1.935,0 -3.44,-1.505 -3.44,-3.44c0,-1.935 1.505,-3.44 3.44,-3.44z"></path></g></g></svg>