<svg xmlns="http://www.w3.org/2000/svg" x="0px" y="0px"
width="50" height="50"
viewBox="0 0 226 226"
style=" fill:#000000;"><g fill="none" fill-rule="nonzero" stroke="none" stroke-width="1" stroke-linecap="butt" stroke-linejoin="miter" stroke-miterlimit="10" stroke-dasharray="" stroke-dashoffset="0" font-family="none" font-weight="none" font-size="none" text-anchor="none" style="mix-blend-mode: normal"><path d="M0,226v-226h226v226z" fill="none"></path><g fill="#f065fa"><path d="M116.955,14.9725c-21.20516,0.47672 -34.62391,9.05766 -40.3975,22.3175c-5.49109,12.62422 -4.34344,28.5325 -0.42375,45.05875c-2.10109,2.47187 -3.83141,5.95016 -3.39,11.15875v0.2825c0.75922,5.50875 2.41891,9.39312 4.52,12.1475c1.02406,1.34188 2.5425,1.37719 3.81375,2.11875c0.75922,4.89078 2.20703,9.71094 4.2375,13.70125c1.14766,2.26 2.29531,4.25516 3.53125,5.9325c0.565,0.77688 1.37719,1.20063 1.9775,1.83625c0.05297,5.89719 0.2825,10.39953 -0.42375,16.385c-1.35953,3.42531 -4.74953,6.16203 -10.17,8.89875c-5.66766,2.86031 -13.08328,5.49109 -20.6225,8.7575c-7.53922,3.26641 -15.18437,7.18609 -21.32875,13.41875c-6.14437,6.23266 -10.54078,14.86656 -11.15875,26.13125l-0.2825,4.8025h181.365l-0.2825,-4.8025c-0.61797,-11.26469 -4.90844,-19.88094 -11.0175,-26.13125c-6.10906,-6.25031 -13.78953,-10.15234 -21.32875,-13.41875c-7.53922,-3.26641 -15.00781,-5.87953 -20.76375,-8.7575c-5.57937,-2.78969 -9.07531,-5.63234 -10.59375,-9.18125c-0.35312,-5.98547 -0.42375,-10.57609 -0.42375,-16.24375c0.52969,-0.60031 1.32422,-0.98875 1.83625,-1.695c1.20063,-1.67734 2.41891,-3.69016 3.53125,-5.9325c1.95984,-3.955 3.46062,-8.81047 4.37875,-13.56c1.44781,-0.74156 3.1075,-0.79453 4.2375,-2.26c2.17172,-2.84266 3.44297,-6.88594 3.955,-12.43c0.40609,-4.78484 -0.97109,-8.26313 -3.1075,-10.87625c2.34828,-7.23906 5.13797,-18.82156 4.2375,-30.65125c-0.49437,-6.4975 -2.20703,-12.97734 -6.07375,-18.3625c-3.49594,-4.87313 -9.14594,-8.21016 -16.24375,-9.74625c-4.78484,-6.39156 -13.47172,-8.89875 -23.4475,-8.89875zM117.09625,24.0125c0.05297,0 0.08828,0 0.14125,0c9.02234,0.03531 14.79594,2.57781 16.6675,5.79125l1.13,1.9775l2.26,0.2825c6.215,0.86516 9.62266,3.26641 12.1475,6.78c2.52484,3.51359 3.97266,8.42203 4.37875,13.8425c0.82984,10.85859 -2.31297,23.58875 -4.37875,29.38l-1.4125,3.81375l3.53125,1.83625c-0.03531,0.12359 1.44781,1.62438 1.27125,4.94375c0,0.07062 0,0.07062 0,0.14125c-0.42375,4.25516 -1.51844,6.65641 -2.26,7.6275c-0.75922,0.98875 -1.14766,0.8475 -0.98875,0.8475h-3.955l-0.42375,3.81375c-0.58266,4.07859 -2.24234,8.81047 -4.09625,12.57125c-0.91813,1.87156 -1.99516,3.65484 -2.825,4.8025c-0.82984,1.14766 -1.64203,1.76563 -1.27125,1.55375l-2.26,1.27125v2.68375c0,6.78 -0.03531,11.84734 0.42375,19.21v0.70625l0.2825,0.565c2.64844,6.92125 8.65156,11.26469 15.255,14.54875c6.60344,3.28406 14.08969,5.82656 21.1875,8.89875c7.09781,3.07219 13.71891,6.55047 18.50375,11.44125c3.81375,3.90203 6.10906,9.09297 7.345,15.5375h-21.47v-13.56c0,-2.48953 -2.03047,-4.52 -4.52,-4.52h-36.16c-0.14125,0 -0.2825,0 -0.42375,0c-2.33062,0.21187 -4.11391,2.17172 -4.09625,4.52v13.56h-93.79c1.23594,-6.44453 3.51359,-11.63547 7.345,-15.5375c4.8025,-4.89078 11.54719,-8.36906 18.645,-11.44125c7.09781,-3.07219 14.51344,-5.59703 21.04625,-8.89875c6.53281,-3.30172 12.44766,-7.69813 14.83125,-14.69l0.2825,-0.8475c0.95344,-7.66281 0.42375,-12.90672 0.42375,-19.4925v-2.68375l-2.26,-1.27125c0.33547,0.19422 -0.54734,-0.52969 -1.4125,-1.695c-0.86516,-1.16531 -1.88922,-2.78969 -2.825,-4.66125c-1.88922,-3.72547 -3.58422,-8.36906 -3.955,-12.28875l-0.2825,-4.09625h-3.81375c-0.15891,-0.07063 -0.58266,-0.30016 -0.98875,-0.8475c-0.79453,-1.04172 -1.92453,-3.47828 -2.5425,-7.6275c0,-0.08828 0,-0.05297 0,-0.14125c-0.01766,-0.07063 0.01766,-0.07063 0,-0.14125c-0.07063,-3.42531 2.04812,-5.33219 1.695,-5.085l2.5425,-1.83625l-0.70625,-3.1075c-4.16688,-16.47328 -4.82016,-31.39281 -0.42375,-41.5275c4.39641,-10.09938 13.29516,-16.49094 32.205,-16.95zM140.12,189.84h27.12v9.04h-27.12z"></path></g></g></svg>