<svg xmlns="http://www.w3.org/2000/svg" x="0px" y="0px"
width="50" height="50"
viewBox="0 0 226 226"
style=" fill:#000000;"><g fill="none" fill-rule="nonzero" stroke="none" stroke-width="1" stroke-linecap="butt" stroke-linejoin="miter" stroke-miterlimit="10" stroke-dasharray="" stroke-dashoffset="0" font-family="none" font-weight="none" font-size="none" text-anchor="none" style="mix-blend-mode: normal"><path d="M0,226v-226h226v226z" fill="none"></path><g fill="#f065fa"><path d="M113,4.52c-35.91042,0 -62.58217,30.57577 -63.2182,65.40758c-1.38302,1.19749 -2.71092,2.44915 -3.93734,3.79609c-5.89812,6.47773 -9.68445,14.91925 -9.68445,25.09836c0,10.44021 3.96906,17.5862 8.06891,21.77899c1.958,2.00238 3.97711,3.36894 5.57937,4.28164c0.41996,11.77565 3.41796,26.39247 8.62508,40.85656c-5.17715,3.11455 -8.71336,8.59766 -8.71336,15.06078c0,8.60433 6.2354,15.52332 14.32805,17.31195c1.78864,8.09264 8.70763,14.32805 17.31195,14.32805c2.06621,0 4.02503,-0.42905 5.87953,-1.07703c7.43138,6.13258 16.13307,10.11703 25.76047,10.11703c9.84986,0 18.79442,-3.84208 26.42258,-9.90516c1.66362,0.50978 3.39421,0.86516 5.21742,0.86516c6.59052,0 11.77617,-4.01308 14.91953,-9.31367c9.27268,-0.73643 16.72047,-8.35513 16.72047,-17.80633c0,-5.36771 -2.83399,-9.67702 -6.57695,-12.98617c1.20051,-2.23109 2.05695,-4.66268 2.05695,-7.35383c0,-2.07345 -0.42768,-4.04979 -1.16531,-5.8707c0.02542,-0.07295 0.04897,-0.14654 0.07062,-0.2207c3.43694,-11.88936 5.30266,-23.8898 5.52641,-34.70336c1.57619,-1.35845 3.73429,-3.45805 6.13555,-7.15078c3.81529,-5.86728 7.51273,-14.98076 7.51273,-27.65851c0,-25.16835 -16.62557,-38.2449 -22.73242,-42.22492c0.03534,-0.65274 0.13242,-1.28592 0.13242,-1.95102c0,-13.25425 -6.74233,-21.73431 -13.28633,-26.16656c-4.81092,-3.25843 -9.6114,-4.63536 -11.83852,-5.1468c-1.14322,-0.9775 -3.14939,-2.56786 -6.75351,-4.36992c-5.05904,-2.52952 -12.56831,-4.99672 -22.36164,-4.99672zM113,13.56c8.28667,0 14.3374,2.0528 18.31836,4.04328c2.10835,1.05418 3.48347,1.97134 4.37875,2.64844c0.05783,1.37367 -0.00856,3.62171 -1.31539,7.0625c-1.87773,4.94392 -6.05489,10.98858 -17.2325,15.3168c-12.46671,4.82424 -32.19342,8.76188 -49.10203,16.22609c-3.02217,1.33412 -5.91644,2.83836 -8.72219,4.44937c3.55087,-27.34556 25.21931,-49.74648 53.675,-49.74648zM144.06617,24.49805c1.78002,0.58691 2.39618,0.37988 4.82016,2.02164c4.75601,3.22124 9.31367,8.30853 9.31367,18.68031c0,9.79333 -4.65986,17.33519 -12.88023,23.50047c-8.11143,6.08357 -19.71696,10.42231 -32.5493,12.62422c-0.61999,0.00169 -1.23301,0.13091 -1.80094,0.37961c-24.41345,4.9319 -39.64705,14.17917 -48.70476,22.46758c-4.73592,4.33368 -7.76587,8.39755 -9.6668,11.44125c-0.80714,-0.53147 -0.87934,-0.28222 -1.90687,-1.33305c-2.68015,-2.7409 -5.49109,-7.20353 -5.49109,-15.45805c0,-8.0365 2.68963,-13.92231 7.32734,-19.01578c4.63772,-5.09347 11.38242,-9.24123 19.16586,-12.67719c15.56687,-6.87191 34.89141,-10.71355 48.72242,-16.06719c13.23039,-5.1231 19.72714,-13.45833 22.41461,-20.53422c0.87748,-2.31033 0.97218,-4.10891 1.23594,-6.02961zM165.23602,56.76484c5.92096,4.51662 15.56398,14.55392 15.56398,32.61109c0,10.94827 -3.08255,18.16436 -6.04727,22.72359c-1.20779,1.85739 -1.31988,1.54561 -2.24234,2.51602c-1.97362,-2.92528 -4.7106,-6.55803 -9.01352,-10.46133c-6.90341,-6.26228 -17.29239,-13.07922 -32.39922,-18.16828c7.3146,-2.51722 14.00996,-5.82194 19.64258,-10.04641c6.69618,-5.02211 11.8411,-11.52684 14.49578,-19.17469zM113.00883,90.51477c22.82624,4.62735 36.46269,13.12687 44.4143,20.34c6.47843,5.87677 9.00645,10.44855 9.78156,12.07688c-0.08318,8.56774 -1.44385,18.3219 -3.88438,28.16172c-2.21758,-1.19049 -4.7059,-1.93336 -7.38031,-1.93336c-8.01875,0 -14.46135,6.17 -15.44039,13.93961c-7.7696,0.97905 -13.93961,7.42164 -13.93961,15.44039c0,2.89854 1.53947,5.19037 2.90445,7.51273c-1.41901,2.55431 -2.90445,5.14904 -2.90445,8.30727c0,4.59018 1.79107,8.7534 4.64359,11.95328c-5.65057,3.8829 -11.66196,6.12672 -18.20359,6.12672c-6.37475,0 -12.29109,-2.3815 -17.89461,-6.4975c2.66438,-3.15188 4.33461,-7.16449 4.33461,-11.5825c0,-3.37052 -1.18124,-6.35727 -2.78969,-9.04c1.60845,-2.68273 2.78969,-5.66948 2.78969,-9.04c0,-6.77552 -4.17832,-12.1415 -9.72859,-15.21969c-0.93644,-6.55053 -6.08042,-11.90031 -12.87141,-11.90031c-5.1915,0 -9.68719,3.02071 -11.96211,7.35383c-3.85388,-12.36487 -5.96942,-24.52151 -6.09141,-33.60867c0.68983,-1.546 3.07525,-6.11712 9.57852,-12.06805c7.86757,-7.19934 21.50141,-15.69464 44.64383,-20.32234zM88.14,126.56c-3.74449,0 -6.78,3.03551 -6.78,6.78c0,3.74449 3.03551,6.78 6.78,6.78c3.74449,0 6.78,-3.03551 6.78,-6.78c0,-3.74449 -3.03551,-6.78 -6.78,-6.78zM137.86,126.56c-3.74449,0 -6.78,3.03551 -6.78,6.78c0,3.74449 3.03551,6.78 6.78,6.78c3.74449,0 6.78,-3.03551 6.78,-6.78c0,-3.74449 -3.03551,-6.78 -6.78,-6.78zM198.88,149.16c-7.43545,0 -13.56,6.12455 -13.56,13.56c0,7.43545 6.12455,13.56 13.56,13.56c7.43545,0 13.56,-6.12455 13.56,-13.56c0,-7.43545 -6.12455,-13.56 -13.56,-13.56zM27.12,153.68c-2.49633,0 -4.52,2.02367 -4.52,4.52c0,2.49633 2.02367,4.52 4.52,4.52c2.49633,0 4.52,-2.02367 4.52,-4.52c0,-2.49633 -2.02367,-4.52 -4.52,-4.52zM76.84,158.2c2.55394,0 4.52,1.96606 4.52,4.52c0,-0.36648 -0.00453,-0.25145 -0.0618,0.42375c-0.17614,2.05616 1.0626,3.97058 3.01039,4.65242c3.54648,1.23461 6.09141,4.50264 6.09141,8.48383c0,2.31846 -0.87578,4.36672 -2.35711,6.01195c-1.55207,1.72037 -1.55207,4.33572 0,6.05609c1.48133,1.64523 2.35711,3.6935 2.35711,6.01195c0,3.15005 -1.55888,5.88965 -3.955,7.50391c-0.00295,0.00294 -0.00589,0.00588 -0.00883,0.00883c-0.33717,0.13188 -0.65728,0.30379 -0.95344,0.51203c-1.23702,0.62872 -2.622,1.01523 -4.12273,1.01523c-5.04733,0 -9.04,-3.99267 -9.04,-9.04c-0.00025,-2.49622 -2.02378,-4.51975 -4.52,-4.52c-5.04733,0 -9.04,-3.99267 -9.04,-9.04c0,-5.04733 3.99267,-9.04 9.04,-9.04c2.49622,-0.00025 4.51975,-2.02378 4.52,-4.52v-4.52c0,-2.55394 1.96606,-4.52 4.52,-4.52zM155.94,158.2c2.32026,0 4.327,1.12156 5.54406,2.85148c0.15998,0.40268 0.37702,0.78027 0.64446,1.12117c0.37868,0.85199 0.59148,1.7997 0.59148,2.80734c0,1.91595 -0.76991,3.58416 -2.03047,4.82016c-1.06269,1.04032 -1.54572,2.53678 -1.29181,4.00208c0.25392,1.4653 1.21229,2.71198 2.56306,3.33409c3.11457,1.43633 5.27922,4.51104 5.27922,8.18367c0,5.04733 -3.99267,9.04 -9.04,9.04c0.26767,0 0.11503,-0.0199 -0.51203,-0.0618c-2.02694,-0.13338 -3.89393,1.10165 -4.56414,3.01922c-1.2378,3.54088 -4.50634,6.08258 -8.48383,6.08258c-1.13427,0 -2.20138,-0.23038 -3.19578,-0.60031c-0.54294,-0.45084 -1.18391,-0.7683 -1.87156,-0.92696c-0.00294,0 -0.00589,0 -0.00883,0c-2.40199,-1.61334 -3.96383,-4.35815 -3.96383,-7.51273c0,-2.07653 0.72202,-3.94336 1.95984,-5.52641c1.34617,-1.72731 1.26062,-4.17113 -0.20305,-5.80008c-1.10849,-1.23413 -1.7568,-2.76204 -1.7568,-4.49352c0,-3.80047 2.97953,-6.78 6.78,-6.78h2.26c2.49622,-0.00025 4.51975,-2.02378 4.52,-4.52v-2.26c0,-3.80047 2.97953,-6.78 6.78,-6.78zM198.88,158.2c2.54986,0 4.52,1.97014 4.52,4.52c0,2.54986 -1.97014,4.52 -4.52,4.52c-2.54986,0 -4.52,-1.97014 -4.52,-4.52c0,-2.54986 1.97014,-4.52 4.52,-4.52zM18.08,180.8c-7.43544,0 -13.56,6.12455 -13.56,13.56c0,7.43545 6.12456,13.56 13.56,13.56c7.43544,0 13.56,-6.12455 13.56,-13.56c0,-7.43545 -6.12456,-13.56 -13.56,-13.56zM18.08,189.84c2.54986,0 4.52,1.97014 4.52,4.52c0,2.54986 -1.97014,4.52 -4.52,4.52c-2.54986,0 -4.52,-1.97014 -4.52,-4.52c0,-2.54986 1.97014,-4.52 4.52,-4.52zM216.96,189.84c-2.49633,0 -4.52,2.02367 -4.52,4.52c0,2.49633 2.02367,4.52 4.52,4.52c2.49633,0 4.52,-2.02367 4.52,-4.52c0,-2.49633 -2.02367,-4.52 -4.52,-4.52z"></path></g></g></svg>