<svg xmlns="http://www.w3.org/2000/svg" x="0px" y="0px"
width="30" height="30"
viewBox="0 0 226 226"
style=" fill:#000000;"><g fill="none" fill-rule="nonzero" stroke="none" stroke-width="1" stroke-linecap="butt" stroke-linejoin="miter" stroke-miterlimit="10" stroke-dasharray="" stroke-dashoffset="0" font-family="none" font-weight="none" font-size="none" text-anchor="none" style="mix-blend-mode: normal"><path d="M0,226v-226h226v226z" fill="none"></path><g id="original-icon" fill="#f065fa"><path d="M113,22.6c-49.9234,0 -90.4,40.4766 -90.4,90.4c0,16.9591 4.76364,32.77051 12.88906,46.33295l-12.07982,44.06705l45.00872,-11.81497c13.16317,7.48377 28.35892,11.81497 44.58203,11.81497c49.9234,0 90.4,-40.4766 90.4,-90.4c0,-49.9234 -40.4766,-90.4 -90.4,-90.4zM82.05742,70.83099c1.469,0 2.97837,-0.00895 4.28165,0.05885c1.61213,0.03767 3.3668,0.15573 5.04674,3.86966c1.99633,4.41453 6.34319,15.48912 6.90065,16.61159c0.55747,1.12247 0.9525,2.4448 0.17656,3.91381c-0.73827,1.50666 -1.12223,2.41855 -2.20703,3.75195c-1.12247,1.29573 -2.3524,2.90504 -3.3694,3.88437c-1.12247,1.12247 -2.28154,2.35323 -0.9858,4.59063c1.29573,2.2374 5.79572,9.57216 12.44765,15.49336c8.55033,7.6388 15.76445,9.98625 18.00938,11.10872c2.24493,1.12247 3.54502,0.94756 4.84075,-0.55911c1.3334,-1.469 5.59997,-6.50963 7.10664,-8.75456c1.469,-2.24493 2.96861,-1.85649 5.00261,-1.11823c2.06413,0.73827 13.07186,6.16074 15.3168,7.2832c2.24493,1.12247 3.71664,1.67805 4.28164,2.58958c0.58007,0.94167 0.58065,5.42447 -1.28008,10.6526c-1.86073,5.2206 -10.99796,10.26911 -15.09609,10.62318c-4.1358,0.3842 -7.99558,1.85897 -26.88165,-5.57643c-22.78079,-8.9722 -37.14745,-32.30505 -38.26992,-33.81172c-1.12247,-1.469 -9.12239,-12.13102 -9.12239,-23.12969c0,-11.03633 5.78642,-16.44127 7.81289,-18.6862c2.06413,-2.24493 4.48175,-2.79557 5.98841,-2.79557z"></path></g></g></svg>